<?xml version="1.0" encoding="UTF-8" standalone="no"?>
<!-- Created with Inkscape (http://www.inkscape.org/) -->

<svg
   xmlns:dc="http://purl.org/dc/elements/1.1/"
   xmlns:cc="http://creativecommons.org/ns#"
   xmlns:rdf="http://www.w3.org/1999/02/22-rdf-syntax-ns#"
   xmlns:svg="http://www.w3.org/2000/svg"
   xmlns="http://www.w3.org/2000/svg"
   xmlns:xlink="http://www.w3.org/1999/xlink"
   xmlns:sodipodi="http://sodipodi.sourceforge.net/DTD/sodipodi-0.dtd"
   xmlns:inkscape="http://www.inkscape.org/namespaces/inkscape"
   width="1000"
   height="274.914"
   viewBox="0 0 264.58333 72.737665"
   version="1.1"
   id="svg8"
   inkscape:version="0.92.4 (5da689c313, 2019-01-14)"
   sodipodi:docname="logo.svg"
   inkscape:export-filename="/home/denis/git/huepaper/images/logo.png"
   inkscape:export-xdpi="96"
   inkscape:export-ydpi="96">
  <defs
     id="defs2">
    <linearGradient
       inkscape:collect="always"
       id="linearGradient825-7">
      <stop
         style="stop-color:#008ae2;stop-opacity:1"
         offset="0"
         id="stop821" />
      <stop
         style="stop-color:#00b8d0;stop-opacity:1"
         offset="1"
         id="stop823" />
    </linearGradient>
    <linearGradient
       inkscape:collect="always"
       xlink:href="#linearGradient825-7"
       id="linearGradient837"
       gradientUnits="userSpaceOnUse"
       gradientTransform="matrix(1.3046371,0,0,1.3046371,2.424774,-84.062545)"
       x1="-1.8583106"
       y1="263.02499"
       x2="200.93031"
       y2="263.02499" />
  </defs>
  <sodipodi:namedview
     id="base"
     pagecolor="#ffffff"
     bordercolor="#666666"
     borderopacity="1.0"
     inkscape:pageopacity="0.0"
     inkscape:pageshadow="2"
     inkscape:zoom="0.98994949"
     inkscape:cx="506.28318"
     inkscape:cy="117.6156"
     inkscape:document-units="mm"
     inkscape:current-layer="layer1"
     showgrid="false"
     inkscape:window-width="1920"
     inkscape:window-height="1200"
     inkscape:window-x="0"
     inkscape:window-y="0"
     inkscape:window-maximized="0"
     units="mm" />
  <metadata
     id="metadata5">
    <rdf:RDF>
      <cc:Work
         rdf:about="">
        <dc:format>image/svg+xml</dc:format>
        <dc:type
           rdf:resource="http://purl.org/dc/dcmitype/StillImage" />
        <dc:title></dc:title>
      </cc:Work>
    </rdf:RDF>
  </metadata>
  <g
     inkscape:label="Ebene 1"
     inkscape:groupmode="layer"
     id="layer1"
     transform="translate(0,-224.26232)">
    <path
       style="font-style:normal;font-variant:normal;font-weight:normal;font-stretch:normal;font-size:56.3184166px;line-height:1.25;font-family:FreeSerif;-inkscape-font-specification:FreeSerif;letter-spacing:0px;word-spacing:0px;fill:url(#linearGradient837);fill-opacity:1;stroke:none;stroke-width:1.83687866"
       d="m 10.507252,224.26232 c -3.477822,1.22458 -6.955946,2.30205 -10.433766,3.23273 v 1.17579 c 0.489832,-0.098 0.906391,-0.14697 1.249274,-0.14697 1.420517,0 2.326465,0.24504 2.718334,0.73486 0.440849,0.48984 0.661381,1.5183 0.661381,3.08577 v 34.60684 c 0,2.59613 -0.269535,4.23718 -0.808354,4.92294 C 3.404289,272.56005 2.106285,273.05012 0,273.34401 v 1.10163 h 15.870432 v -1.10163 c -2.155271,-0.24492 -3.526785,-0.73497 -4.114583,-1.46973 -0.587799,-0.73475 -0.881166,-2.37579 -0.881166,-4.92294 v -17.70759 c 1.518488,-1.66544 2.889995,-2.84092 4.114581,-3.52669 1.273571,-0.73475 2.620577,-1.1023 4.041094,-1.1023 3.673754,0 5.510157,2.59668 5.510154,7.78892 v 14.54766 c 0,2.49816 -0.317868,4.13922 -0.954652,4.92294 -0.587802,0.78375 -1.934808,1.2738 -4.041093,1.46973 v 1.10163 h 15.576482 v -1.10163 c -2.008318,-0.39187 -3.257312,-0.90644 -3.747147,-1.54322 -0.44085,-0.68577 -0.661382,-2.3023 -0.661382,-4.84945 v -14.62115 c 0,-7.78836 -3.012556,-11.68304 -9.037515,-11.68304 -2.155267,0 -4.090359,0.49007 -5.804773,1.46973 -1.665436,0.93069 -3.330312,2.49824 -4.995749,4.70248 v -22.33658 z m 77.809598,16.38483 c -4.50647,0 -8.20444,1.66555 -11.09447,4.99642 -2.84104,3.28188 -4.26155,7.64144 -4.26155,13.07861 0,5.04529 1.22449,9.0618 3.67366,12.0498 2.49816,2.93899 5.85375,4.40853 10.06633,4.40853 3.47782,0 6.56389,-1.05297 9.25797,-3.15926 2.69409,-2.10629 4.80002,-5.14335 6.31851,-9.111 l -1.17578,-0.51441 c -1.7634,2.79206 -3.52632,4.77615 -5.2897,5.95175 -1.71442,1.1756 -3.74751,1.76301 -6.09872,1.76301 -1.32255,0 -2.59605,-0.21986 -3.82064,-0.66071 -1.1756,-0.48984 -2.35109,-1.27395 -3.52669,-2.35158 -1.17559,-1.12663 -2.13122,-2.79216 -2.86597,-4.99641 -0.73475,-2.25324 -1.15063,-4.92274 -1.2486,-8.00871 h 22.62986 c -0.53882,-4.50647 -1.83682,-7.86206 -3.89413,-10.06633 -2.05731,-2.25322 -4.94734,-3.37971 -8.67008,-3.37971 z m 26.30419,0 c -3.96765,1.56747 -7.49476,2.81646 -10.58073,3.74715 v 1.17579 c 0.44085,-0.0489 1.05342,-0.0735 1.83717,-0.0735 1.22459,0 2.03251,0.26954 2.42438,0.80835 0.39186,0.53883 0.58789,1.66531 0.58789,3.37972 v 34.38638 c 0,1.91035 -0.31786,3.18385 -0.95465,3.82063 -0.61496,0.61498 -1.94577,1.02254 -3.97704,1.22636 H 0 v 7.88195 h 264.58312 v -7.88195 h -75.09127 v -0.0506 c -2.74306,-0.0489 -4.50663,-0.41653 -5.29037,-1.1023 -0.78372,-0.63679 -1.1751,-2.10631 -1.1751,-4.40853 v -11.53539 c 1.27356,1.22459 2.42454,2.05703 3.45319,2.49788 1.07763,0.44085 2.40014,0.66138 3.96761,0.66138 4.35954,0 8.00848,-1.81257 10.9475,-5.43735 2.98797,-3.62477 4.48201,-8.10617 4.48201,-13.44537 0,-4.55544 -1.15098,-8.3031 -3.4532,-11.24211 -2.30223,-2.93901 -5.24127,-4.40853 -8.81705,-4.40853 -3.91868,0 -7.44513,1.93509 -10.58006,5.80478 v -5.65781 l -0.44092,-0.14697 c -3.96767,1.56747 -7.4948,2.81646 -10.58075,3.74715 v 1.17579 c 0.44085,-0.0489 1.05344,-0.0735 1.83717,-0.0735 1.22459,0 2.03253,0.26954 2.42439,0.80835 0.39188,0.53883 0.5879,1.66531 0.5879,3.37972 V 284.071 c 0,1.91035 -0.31855,3.18385 -0.95533,3.82063 -0.61497,0.61498 -1.94516,1.02254 -3.97638,1.22636 h -50.39502 v -0.0506 c -2.74307,-0.0489 -4.50594,-0.41653 -5.28968,-1.1023 -0.78373,-0.63679 -1.17579,-2.10631 -1.17579,-4.40853 v -11.53539 c 1.27356,1.22459 2.42455,2.05703 3.4532,2.49788 1.07764,0.44085 2.40013,0.66138 3.9676,0.66138 4.35953,0 8.00918,-1.81257 10.94817,-5.43735 2.98799,-3.62477 4.48202,-8.10617 4.48202,-13.44537 0,-4.55544 -1.15165,-8.3031 -3.45388,-11.24211 -2.30221,-2.93901 -5.24126,-4.40853 -8.81705,-4.40853 -3.91868,0 -7.44512,1.93509 -10.58006,5.80478 v -5.65781 z m 40.7049,0 c -3.47784,0 -6.41688,0.80861 -8.81707,2.42506 -2.35118,1.56747 -3.52668,3.50188 -3.52668,5.80411 0,0.83271 0.31855,1.56782 0.95533,2.2046 0.63678,0.63678 1.37119,0.95533 2.20392,0.95533 0.8817,0 1.64131,-0.29405 2.27809,-0.88185 0.68577,-0.63679 1.02881,-1.37189 1.02881,-2.2046 0,-0.19594 -0.0735,-0.63632 -0.22046,-1.32209 -0.098,-0.68577 -0.14697,-1.22483 -0.14697,-1.6167 0,-0.97967 0.5139,-1.81212 1.54255,-2.49788 1.02865,-0.73476 2.27764,-1.1023 3.74715,-1.1023 3.72274,0 5.58431,2.03243 5.58431,6.09805 v 4.48201 c -0.6368,0.24492 -1.64075,0.63696 -3.01228,1.17579 -1.37154,0.53881 -2.37548,0.95538 -3.01228,1.24927 -0.63678,0.24492 -1.56792,0.63697 -2.79249,1.17579 -1.17562,0.48984 -2.05705,0.93023 -2.64485,1.32209 -0.58781,0.34287 -1.32289,0.80845 -2.20461,1.39625 -0.88169,0.53882 -1.54262,1.07789 -1.98346,1.61671 -0.44086,0.53881 -0.90642,1.15072 -1.39624,1.83649 -0.48984,0.63678 -0.83289,1.34739 -1.02882,2.13112 -0.19593,0.73475 -0.29395,1.54267 -0.29395,2.42437 0,2.30222 0.7106,4.18832 2.13112,5.65781 1.46951,1.4695 3.33107,2.20393 5.58431,2.20393 2.939,0 6.51446,-1.78807 10.72704,-5.36386 0.19593,1.91036 0.63699,3.28187 1.32276,4.11458 0.73476,0.83271 1.86122,1.24928 3.37971,1.24928 1.22459,0 2.30207,-0.24503 3.23275,-0.73487 0.97967,-0.53882 2.10615,-1.51827 3.3797,-2.93879 v -1.91066 c -1.12659,0.93067 -2.20408,1.39625 -3.23273,1.39625 -0.83273,0 -1.42012,-0.29404 -1.76301,-0.88184 -0.29391,-0.63679 -0.44092,-1.76326 -0.44092,-3.37972 v -14.3272 c 0,-3.96765 -0.75961,-6.90671 -2.27809,-8.81706 -1.51849,-1.95933 -4.28603,-2.93947 -8.30264,-2.93947 z m 69.58111,0 c -4.50647,0 -8.20513,1.66555 -11.09515,4.99642 -2.84103,3.28188 -4.26155,7.64144 -4.26155,13.07861 0,5.04529 1.22449,9.0618 3.67366,12.0498 2.49816,2.93899 5.85376,4.40853 10.06633,4.40853 3.47782,0 6.56389,-1.05297 9.25798,-3.15926 2.69407,-2.10629 4.80002,-5.14335 6.3185,-9.111 l -1.17511,-0.51441 c -1.7634,2.79206 -3.52696,4.77615 -5.29036,5.95175 -1.71441,1.1756 -3.74752,1.76301 -6.09873,1.76301 -1.32255,0 -2.59605,-0.21986 -3.82064,-0.66071 -1.1756,-0.48984 -2.35107,-1.27395 -3.52668,-2.35158 -1.17561,-1.12663 -2.13056,-2.79216 -2.86531,-4.99641 -0.73476,-2.25324 -1.15129,-4.92274 -1.24927,-8.00871 h 22.63053 c -0.53882,-4.50647 -1.83683,-7.86206 -3.89411,-10.06633 -2.0573,-2.25322 -4.94735,-3.37971 -8.67009,-3.37971 z m 26.45049,0 c -3.33089,1.37154 -6.95533,2.69405 -10.87401,3.96761 v 1.17579 c 0.93069,-0.19595 1.78764,-0.29395 2.57136,-0.29395 0.93069,0 1.56777,0.34304 1.91066,1.02881 0.39187,0.6368 0.58789,1.76327 0.58789,3.37972 v 18.36897 c 0,1.86138 -0.29403,3.06136 -0.88184,3.60018 -0.53881,0.53883 -1.98384,1.02888 -4.33504,1.46973 v 1.10163 h 17.63411 v -1.10163 c -2.49816,-0.098 -4.16371,-0.51453 -4.99642,-1.24927 -0.83273,-0.73476 -1.24928,-2.15527 -1.24928,-4.26156 v -16.5318 c 0,-1.1756 0.61259,-2.4736 1.83717,-3.89413 1.22459,-1.42051 2.32655,-2.13111 3.30623,-2.13111 0.34287,0 1.05281,0.44106 2.13044,1.32276 1.07764,0.83271 1.98426,1.24927 2.719,1.24927 0.8817,0 1.56712,-0.29404 2.05696,-0.88184 0.53881,-0.5878 0.80835,-1.3964 0.80835,-2.42506 0,-1.22458 -0.36754,-2.17954 -1.1023,-2.86531 -0.68576,-0.68577 -1.66524,-1.02881 -2.93879,-1.02881 -1.51849,0 -2.91449,0.51458 -4.18807,1.54322 -1.27356,0.97966 -2.8166,2.76773 -4.62899,5.36386 v -6.76011 z m -215.501425,0.73486 v 1.02882 c 1.763398,0.098 2.96339,0.49002 3.600174,1.17579 0.636784,0.63678 0.955328,1.81226 0.955328,3.52669 v 18.51527 c 0,2.89002 0.807933,5.21716 2.424387,6.98056 1.616451,1.71442 3.771394,2.57137 6.465478,2.57137 0.832721,0 1.66583,-0.1225 2.498551,-0.36744 0.832714,-0.19593 1.518135,-0.41645 2.056952,-0.66137 0.538817,-0.24493 1.1514,-0.63631 1.837169,-1.17512 0.73475,-0.58779 1.249318,-1.00435 1.54322,-1.24927 0.293901,-0.2939 0.78329,-0.80848 1.46906,-1.54323 0.73475,-0.73476 1.175811,-1.17513 1.32276,-1.32208 v 6.09805 l 0.293945,0.14697 c 2.890026,-1.17559 6.245626,-2.27758 10.066321,-3.30623 v -1.02881 h -0.36743 c -1.714411,0 -2.841565,-0.26953 -3.380382,-0.80836 -0.538817,-0.53881 -0.807678,-1.6653 -0.807678,-3.37971 v -25.2019 H 54.224417 v 1.24928 c 2.302216,0.098 3.771746,0.44102 4.40853,1.02881 0.685769,0.58781 1.028814,1.78779 1.028814,3.60018 v 17.26668 c 0,1.32254 -0.343045,2.44902 -1.028814,3.37971 -0.636784,0.8817 -1.444717,1.5426 -2.424387,1.98347 -0.930686,0.39186 -1.763797,0.6614 -2.498547,0.80835 -0.734752,0.14694 -1.371166,0.22046 -1.90998,0.22046 -1.42052,0 -2.645009,-0.5384 -3.673661,-1.61603 -1.028652,-1.12662 -1.543223,-2.4498 -1.543223,-3.96828 v -23.95263 z m 50.330295,1.91066 c 2.25324,0 3.8943,0.61191 4.92294,1.8365 1.02865,1.22458 1.78759,3.4292 2.27741,6.61313 H 78.39817 c 0.78374,-5.6331 3.37974,-8.44963 7.78824,-8.44963 z m 136.58952,0 c 2.25324,0 3.89428,0.61191 4.92294,1.8365 1.02864,1.22458 1.78758,3.4292 2.27741,6.61313 h -14.98859 c 0.78372,-5.6331 3.37973,-8.44963 7.78824,-8.44963 z m -100.21967,1.76301 c 2.74306,0 4.9232,1.298 6.53964,3.89412 1.66544,2.54714 2.49788,5.95174 2.49788,10.2133 0,4.06563 -0.83244,7.37223 -2.49788,9.91936 -1.61644,2.49816 -3.74757,3.74715 -6.39267,3.74715 -1.71442,0 -3.42898,-0.53908 -5.14339,-1.61671 -1.66543,-1.07764 -2.49787,-2.15511 -2.49787,-3.23274 v -18.07503 c 0,-1.07763 0.80794,-2.15511 2.42439,-3.23274 1.66543,-1.07765 3.35547,-1.61671 5.0699,-1.61671 z m 67.96441,0 c 2.74308,0 4.92251,1.298 6.53896,3.89412 1.66544,2.54714 2.49855,5.95174 2.49855,10.2133 0,4.06563 -0.83311,7.37223 -2.49855,9.91936 -1.61645,2.49816 -3.74689,3.74715 -6.39199,3.74715 -1.71442,0 -3.42897,-0.53908 -5.1434,-1.61671 -1.66543,-1.07764 -2.49786,-2.15511 -2.49786,-3.23274 v -18.07503 c 0,-1.07763 0.80792,-2.15511 2.42438,-3.23274 1.66543,-1.07765 3.3555,-1.61671 5.06991,-1.61671 z m -30.56575,9.69889 v 10.65355 c 0,1.12662 -0.1225,1.93523 -0.36744,2.42506 -0.2449,0.48984 -0.75879,0.9554 -1.54253,1.39625 -1.91035,1.12662 -3.69844,1.68952 -5.36386,1.68952 -1.12662,0 -2.17958,-0.48939 -3.15926,-1.46906 -0.97965,-0.97966 -1.46974,-2.4737 -1.46974,-4.48201 2e-5,-2.15527 0.88145,-3.99235 2.64485,-5.51083 1.7634,-1.51848 4.84947,-3.08603 9.25798,-4.70248 z"
       id="path820"
       inkscape:connector-curvature="0" />
  </g>
</svg>
